<svg xmlns:xlink="http://www.w3.org/1999/xlink" width="25" height="30" viewBox="0 0 25 30">
  <defs>
    <polygon id="apple-a" points="0 .329 25.029 .329 25.029 22.631 0 22.631"/>
    <polygon id="apple-c" points=".452 .355 6.483 .355 6.483 7.362 .452 7.362"/>
  </defs>
  <g fill="none" fill-rule="evenodd">
    <g transform="translate(0 7.014)">
      <mask id="apple-b" fill="#fff">
        <use xlink:href="#apple-a"/>
      </mask>
      <path fill="#1D1D1B" d="M25.03 14.876c-.684 1.515-1.012 2.192-1.893 3.531-1.228 1.87-2.96 4.2-5.107 4.22-1.907.018-2.396-1.242-4.985-1.227-2.588.014-3.128 1.249-5.036 1.231-2.146-.02-3.788-2.123-5.017-3.993C-.444 13.408-.804 7.27 1.316 4.008 2.822 1.688 5.198.33 7.432.33c2.275 0 3.705 1.247 5.586 1.247 1.825 0 2.937-1.249 5.567-1.249 1.987 0 4.093 1.083 5.595 2.954-4.918 2.694-4.12 9.715.85 11.593" mask="url(#apple-b)"/>
    </g>
    <g transform="translate(11.579 .172)">
      <mask id="apple-d" fill="#fff">
        <use xlink:href="#apple-c"/>
      </mask>
      <path fill="#1D1D1B" d="M5.01 5.082C5.966 3.856 6.691 2.125 6.428.355c-1.56.107-3.387 1.1-4.452 2.394C1.008 3.925.209 5.667.52 7.36c1.704.054 3.467-.964 4.49-2.278" mask="url(#apple-d)"/>
    </g>
  </g>
</svg>
