<svg width="30" height="27" viewBox="0 0 30 27">
  <g fill="none">
    <polygon fill="#65C1C2" points="8.396 22.849 4.372 26.873 .348 22.849"/>
    <path fill="#393E47" d="M14.287 13.702c-.842-.987-.805-1.536-.293-2.048.622-.622 1.28-.366 2.012.329l-1.72 1.72zM22.92 2.727c.622-.622 1.28-.366 2.012.329l-1.72 1.72c-.878-.988-.841-1.5-.292-2.05zm5.195 1.756c-.768 1.17-2.159 3.073-3.586 1.646l3.622-3.622c-.329-.33-.548-.622-.768-.805-1.939-1.939-4.134-1.975-5.854-.256-1.134 1.134-1.463 2.451-1.134 3.695l-1.134-1.28c-.292.146-1.683 1.39-.658 3.22l-1.28-1.062-1.72 1.72 2.341 2.341c-1.793-1.426-3.732-1.28-5.268.256-1.647 1.647-1.537 3.659-.293 5.305l-.256-.256c-1.646-1.646-3.439-1.06-4.317-.183-.695.695-1.098 1.61-.915 2.269l-3.548-3.55-1.903 1.903L8.47 22.85h3.768l-2.525-2.525c-1.317-1.353-1.353-2.049-.695-2.707.622-.622 1.354-.22 2.634 1.024l2.488 2.488 1.866-1.866-2.378-2.378c1.72 1.28 3.768 1.354 5.598-.475l.036-.037c1.134-1.024 1.464-2.049 1.464-2.049l-1.427-.951c-.769 1.17-2.122 3.073-3.549 1.646l3.622-3.622 2.268 2.269 1.976-1.976-2.817-2.817c-1.317-1.317-.549-2.56 0-3.037a5.412 5.412 0 0 0 1.097 1.537c1.83 1.83 4.171 2.195 6.256.146l.037-.036c1.134-1.025 1.463-2.049 1.463-2.049l-1.536-.951z"/>
  </g>
</svg>
