<svg width="73" height="73" viewBox="0 0 73 73">
  <path fill="#E97C2A" d="M15.3 60.5c1.7 0 3 1.3 3 3 0 1.3-.9 2.5-2.1 2.9-1.4-.9-2.6-1.9-3.9-3 .1-1.7 1.4-2.9 3-2.9zm15-18c-1.7 0-3-1.3-3-3s1.3-3 3-3 3 1.3 3 3-1.3 3-3 3zm-5-25c0 1.7-1.3 3-3 3s-3-1.3-3-3 1.3-3 3-3 3 1.3 3 3zm33 30c-1.7 0-3-1.3-3-3s1.3-3 3-3 3 1.3 3 3-1.3 3-3 3zm-1-40c0 1.7-1.3 3-3 3s-3-1.3-3-3c0-1.3.8-2.4 1.9-2.8 1.4.8 2.8 1.6 4.1 2.5v.3zM56 38.9l-2.8-25.6c-1.3-.3-2.5-.9-3.4-1.9l-21.6 6.8c-.2 1.5-.9 2.8-2 3.8l4.2 11.5c3 .1 5.5 2.4 5.9 5.3l16.6 3c.7-1.3 1.8-2.3 3.1-2.9zm-3.5 6.9l-17.1-3.1c-.4.5-.8 1-1.3 1.4l8.7 27.7c2.5-.5 5-1.2 7.3-2.1l5.2-20.1c-1.4-.8-2.4-2.2-2.8-3.8zM22.7 3.2zm-6.4 14.3c0-3 2.3-5.5 5.2-5.9l1.2-8.4c-9 3.7-16.1 10.9-19.8 19.9l13.4-5v-.6zm8.5 24.3L.5 40.5c.9 7.9 4.3 15 9.4 20.5.9-2.1 3-3.6 5.5-3.6.6 0 1.2.1 1.8.3l8.8-14c-.5-.6-.9-1.2-1.2-1.9zm1.9-7l-4.1-11.3h-.2c-1.7 0-3.2-.7-4.3-1.8L1.4 27.9c-.7 2.7-1 5.6-1 8.5l24.3 1.3c.3-1.1 1-2.1 2-2.9zm3.6 10.7c-.3 0-.5 0-.8-.1l-9.2 14.7c.6 1 1 2.1 1 3.3 0 1.9-.9 3.5-2.2 4.6 5.3 2.9 11.2 4.4 17.2 4.4.8 0 1.6 0 2.4-.1l-8.4-26.8zm18-38c0-1.7.7-3.2 1.8-4.3C45.9 1.4 41.2.4 36.3.4c-3.3 0-6.4.4-9.4 1.3l-1.5 10.6c.8.5 1.5 1.1 1.9 1.9l21-6.6v-.1zm16 37c0 3-2.2 5.5-5.1 5.9l-4.4 16.9c9.8-5.9 16.6-16.4 17.4-28.5l-7.9 4.9v.8zM60 9.4c-.5 1.4-1.5 2.6-2.8 3.4L60 38.7c1 .3 1.8.8 2.5 1.4l9.7-6C71.6 24.3 67 15.5 60 9.4z"/>
</svg>
