<svg width="88" height="88" viewBox="0 0 88 88">
  <g fill="none" fill-rule="evenodd">
    <path fill="#E11F26" fill-rule="nonzero" d="M37.808 63a2.827 2.827 0 0 1-.896-.152 2.797 2.797 0 0 1-1.622-1.398 2.724 2.724 0 0 1-.139-2.117L46.48 25.906a2.818 2.818 0 0 1 2.12-1.85 2.864 2.864 0 0 1 2.688.882c.671.745.888 1.786.568 2.73L40.527 61.095A2.83 2.83 0 0 1 37.808 63zm-15.981 0a2.77 2.77 0 0 1-.896-.152 2.798 2.798 0 0 1-1.636-1.392 2.724 2.724 0 0 1-.146-2.123l11.329-33.427c.495-1.46 2.1-2.249 3.584-1.762 1.484.486 2.287 2.065 1.792 3.525L24.525 61.096A2.84 2.84 0 0 1 21.827 63zm32.991 0a2.82 2.82 0 0 1-.894-.151 2.801 2.801 0 0 1-1.628-1.39 2.721 2.721 0 0 1-.15-2.113l11.305-33.314a2.805 2.805 0 0 1 2.11-1.966 2.856 2.856 0 0 1 2.76.905c.679.78.865 1.863.484 2.817L57.5 61.102A2.822 2.822 0 0 1 54.818 63z"/>
    <path fill="#E11F26" fill-rule="nonzero" d="M82.494 5.498v77.024H5.496V5.498h76.998M88 0H0v88h87.97V0H88z"/>
  </g>
</svg>
