<?xml version="1.0" encoding="utf-8"?>
<!-- Generator: Adobe Illustrator 19.1.0, SVG Export Plug-In . SVG Version: 6.00 Build 0)  -->
<svg version="1.1" id="Layer_1" xmlns:sketch="http://www.bohemiancoding.com/sketch/ns"
	 xmlns="http://www.w3.org/2000/svg" xmlns:xlink="http://www.w3.org/1999/xlink" x="0px" y="0px" viewBox="-256 257.3 83 82"
	 style="enable-background:new -256 257.3 83 82;" xml:space="preserve">
<style type="text/css">
	.st0{fill:url(#Oval-1_1_);}
	.st1{fill:#EBF5FF;}
</style>
<title>icon</title>
<desc>Created with Sketch.</desc>
<g id="Page-1" sketch:type="MSPage">
	<g id="opt-2" transform="translate(-484.000000, -482.000000)" sketch:type="MSLayerGroup">
		<g id="icon" transform="translate(484.912024, 482.000000)" sketch:type="MSShapeGroup">
			
				<linearGradient id="Oval-1_1_" gradientUnits="userSpaceOnUse" x1="-515.8828" y1="593.4148" x2="-515.1511" y2="592.4148" gradientTransform="matrix(-82 0 0 -82 -42488.7852 48919.1992)">
				<stop  offset="0" style="stop-color:#1F2C65"/>
				<stop  offset="1" style="stop-color:#85BBCD"/>
			</linearGradient>
			<circle id="Oval-1" class="st0" cx="-215" cy="298.3" r="41"/>
		</g>
	</g>
</g>
<g>
	<g>
		<path class="st1" d="M-214.1,316.4c-8,0-16.6-2.6-16.6-7.5c0-3.5,4.9-6.6,11.9-7.5c0.8-0.1,1.6,0.5,1.7,1.3
			c0.1,0.8-0.5,1.6-1.3,1.7c-6,0.8-9.2,3.2-9.2,4.5c0,1.8,5.3,4.5,13.6,4.5s13.6-2.7,13.6-4.5c0-1.4-3.3-3.8-9.2-4.5
			c-0.8-0.1-1.4-0.9-1.3-1.7c0.1-0.8,0.9-1.4,1.7-1.3c7,0.9,11.9,4,11.9,7.5C-197.5,313.7-206,316.4-214.1,316.4z"/>
	</g>
	<g>
		<g>
			<path class="st1" d="M-214.1,295.3c-4.2,0-7.5-3.4-7.5-7.5s3.4-7.5,7.5-7.5c4.2,0,7.5,3.4,7.5,7.5S-209.9,295.3-214.1,295.3z
				 M-214.1,283.2c-2.5,0-4.5,2-4.5,4.5c0,2.5,2,4.5,4.5,4.5s4.5-2,4.5-4.5C-209.6,285.2-211.6,283.2-214.1,283.2z"/>
		</g>
		<g>
			<path class="st1" d="M-214.1,310.3c-0.8,0-1.5-0.7-1.5-1.5v-15c0-0.8,0.7-1.5,1.5-1.5s1.5,0.7,1.5,1.5v15
				C-212.6,309.7-213.3,310.3-214.1,310.3z"/>
		</g>
	</g>
</g>
</svg>
