<?xml version="1.0" encoding="UTF-8"?>
<svg width="82px" height="82px" viewBox="0 0 82 82" version="1.1" xmlns="http://www.w3.org/2000/svg" xmlns:xlink="http://www.w3.org/1999/xlink">
    <!-- Generator: Sketch 47.1 (45422) - http://www.bohemiancoding.com/sketch -->
    <title>icon</title>
    <desc>Created with Sketch.</desc>
    <defs></defs>
    <g id="Page-1" stroke="none" stroke-width="1" fill="none" fill-rule="evenodd">
        <g id="Artboard" fill-rule="nonzero">
            <g id="icon">
                <circle id="Oval-1" fill="#E7433B" cx="41" cy="41" r="41"></circle>
                <path d="M40.7522684,19 C32.6180946,19 26,25.6180946 26,33.7522684 C26,34.3264721 26.0408524,34.8915975 26.0998615,35.4090616 C26.5446991,40.9876887 29.159255,44.982149 31.9236032,49.2126457 C35.5299654,54.7254549 39.615209,57.973608 39.615209,69.3351243 C39.615209,69.9615283 40.1235948,70.4699141 40.7499988,70.4699141 C41.3764028,70.4699141 41.8847887,69.9615283 41.8847887,69.3351243 C41.8847887,57.9758776 45.9700323,54.7277245 49.5763945,49.2126457 C52.3430122,44.982149 54.9552985,40.9876887 55.395597,35.4499141 C55.4614148,34.8915975 55.4999977,34.3264721 55.4999977,33.7499988 C55.5045368,25.6180946 48.8864423,19 40.7522684,19 Z M40.7522684,39.4262178 C37.6247875,39.4262178 35.078319,36.8797493 35.078319,33.7522684 C35.078319,30.6247875 37.6247875,28.078319 40.7522684,28.078319 C43.8797493,28.078319 46.4262178,30.6247875 46.4262178,33.7522684 C46.4262178,36.8797493 43.8797493,39.4262178 40.7522684,39.4262178 Z" id="Shape" fill="#FFFFFF"></path>
            </g>
        </g>
    </g>
</svg>