<svg xmlns="http://www.w3.org/2000/svg" width="344" height="345" viewBox="0 0 344 345">
  <g fill="none" fill-rule="evenodd">
    <path fill="#EF2F30" d="M73.013407,2.6866064 C106.18824,0.895535467 139.183771,-3.78753344e-15 172,0 C204.832174,0 237.664282,0.896405919 270.496323,2.68921776 L270.496323,2.68921771 C308.699378,4.77531668 339.208201,35.2833237 341.295323,73.4863222 C343.098441,106.490881 344,139.495441 344,172.5 C344,205.511425 343.098066,238.52285 341.294197,271.534276 L341.294197,271.534275 C339.20649,309.740047 308.693155,340.248892 270.487077,342.330977 C237.836179,344.110326 205.007154,345 172,345 C139.007428,345 106.01479,344.111111 73.0220864,342.333334 L73.0220864,342.333335 C34.4742283,340.256224 3.79947595,309.257162 2.12787429,270.689591 C0.709291429,237.959727 1.89395185e-15,205.229864 0,172.5 C0,139.776865 0.708999838,107.053729 2.12699951,74.3305938 L2.12699924,74.3305938 C3.79813889,35.7657548 34.4685114,4.76760084 73.013407,2.6866064 Z"/>
    <path fill="#5C0405" fill-rule="nonzero" d="M171.727273,63 C131.659862,63 99,95.5999003 99,135.578099 C99,162.959499 118.676238,184.419499 132.773492,205.617199 C146.870545,226.815099 155.716439,248.2265 163.322107,276.5547 C164.381317,280.5076 168.202458,283 171.727273,283 C175.252088,283 179.073229,280.5076 180.132439,276.5547 C188.433881,245.6352 197.223398,224.385199 211.131661,203.839799 C225.040527,183.294099 244.454545,162.889399 244.454545,135.578099 C244.454545,95.5999003 211.794683,63 171.727273,63 Z M172.181818,107.545455 C186.048118,107.545455 197.181818,118.679154 197.181818,132.545456 C197.181818,146.411755 186.048118,157.545455 172.181818,157.545455 C158.315518,157.545455 147.181818,146.411755 147.181818,132.545456 C147.181818,118.679154 158.315518,107.545455 172.181818,107.545455 Z"/>
  </g>
</svg>
